<?xml version="1.0" standalone="no"?>
<!DOCTYPE svg PUBLIC "-//W3C//DTD SVG 20010904//EN"
 "http://www.w3.org/TR/2001/REC-SVG-20010904/DTD/svg10.dtd">
<svg version="1.0" xmlns="http://www.w3.org/2000/svg"
 width="700.000000pt" height="384.000000pt" viewBox="0 0 700.000000 384.000000"
 preserveAspectRatio="xMidYMid meet">

<g transform="translate(0.000000,384.000000) scale(0.100000,-0.100000)"
fill="#000000" stroke="none">
<path d="M4035 3413 c-365 -17 -721 -62 -840 -107 -55 -20 -40 -19 63 3 312
70 811 97 1277 71 203 -11 425 -39 425 -52 0 -6 -14 -8 -32 -4 -159 29 -707
43 -1038 27 -330 -16 -614 -48 -727 -80 -31 -9 -48 1 -20 12 9 4 9 6 0 6 -7 1
-21 -8 -32 -20 -11 -12 -24 -18 -30 -14 -6 3 -11 1 -11 -5 0 -6 -4 -8 -10 -5
-5 3 -10 1 -10 -5 0 -6 -4 -9 -9 -6 -21 14 -212 -137 -412 -324 -103 -96 -118
-107 -131 -94 -13 13 -21 12 -72 -6 -46 -18 -64 -32 -98 -76 -42 -56 -45 -58
-73 -48 -14 6 -14 9 1 33 9 14 28 37 43 49 17 16 20 21 6 14 -11 -6 -33 -24
-49 -41 -25 -26 -28 -35 -22 -69 l6 -39 -173 -6 c-94 -4 -224 -7 -287 -8 -73
-1 -106 -4 -90 -9 14 -4 44 -8 68 -9 23 -1 42 -5 42 -10 0 -4 -48 -25 -107
-46 -60 -21 -151 -59 -203 -86 -97 -50 -191 -121 -178 -135 5 -4 59 7 120 24
375 105 686 154 1153 182 342 20 1278 41 1290 28 3 -2 -77 -24 -178 -47 -100
-24 -249 -63 -332 -88 -174 -52 -499 -177 -525 -203 -21 -21 -298 -127 -279
-106 3 3 87 48 187 101 203 106 232 123 232 138 0 27 -673 -12 -905 -54 -99
-17 -299 -67 -362 -90 -94 -33 -217 -95 -248 -123 -25 -24 -35 -26 -109 -26
-113 0 -343 -19 -369 -31 -20 -9 -20 -9 3 -4 14 3 124 8 245 10 121 2 207 1
191 -3 -20 -5 -39 -21 -58 -52 -26 -42 -49 -88 -50 -100 0 -3 -15 -22 -34 -43
-32 -35 -39 -51 -35 -87 2 -13 1 -13 -9 0 -9 13 -12 13 -21 -3 -5 -9 -20 -29
-32 -43 l-22 -26 -241 -9 c-132 -5 -278 -15 -324 -24 -117 -20 -143 -19 -167
7 -27 31 -34 55 -27 93 5 31 9 33 57 39 70 8 132 31 174 63 40 31 97 33 121 5
13 -16 13 -16 8 1 -3 10 -6 22 -6 27 0 5 -12 10 -28 12 -19 2 -31 12 -41 36
-15 32 -31 43 -31 19 0 -7 5 -18 12 -25 9 -9 9 -12 0 -12 -7 0 -21 9 -32 20
-15 15 -20 16 -20 6 0 -8 5 -18 10 -21 13 -8 13 -25 -1 -25 -6 0 -13 9 -16 20
-4 13 -11 19 -22 16 -9 -3 -24 1 -33 8 -16 12 -16 16 -1 70 13 47 19 55 34 51
20 -7 24 6 20 54 -3 29 107 138 235 234 88 66 247 154 319 177 58 19 143 60
124 60 -80 0 -317 -115 -470 -229 -208 -155 -314 -276 -406 -467 -75 -155 -84
-210 -89 -499 -2 -132 -6 -250 -9 -261 -2 -12 4 -47 15 -79 11 -32 17 -67 14
-79 -3 -15 3 -29 19 -44 28 -27 137 -72 173 -72 19 0 41 -14 75 -50 26 -27 68
-62 93 -79 l47 -29 -73 -7 c-104 -10 -213 -39 -259 -70 -75 -49 -64 -74 49
-103 162 -43 417 -76 957 -122 536 -46 1701 -76 2275 -60 508 14 749 39 897
91 32 12 139 38 238 59 201 43 518 125 670 175 155 50 508 160 675 209 71 21
226 61 335 87 70 17 107 31 124 48 l25 24 -35 17 c-19 10 -48 21 -66 24 l-31
7 33 72 c64 140 104 385 90 559 -3 49 -1 138 6 208 9 96 9 133 -1 178 -26 118
-50 176 -104 246 -30 39 -77 105 -105 147 -88 132 -219 235 -326 255 -51 9
-40 -5 32 -41 43 -22 101 -73 228 -199 94 -93 160 -163 148 -157 -50 26 -102
11 -165 -47 l-27 -25 -36 36 c-22 22 -35 45 -35 61 0 35 -45 57 -123 58 -50 1
-66 5 -80 22 l-18 21 6 -23 c6 -21 5 -23 -13 -13 -14 7 -35 5 -83 -9 -35 -11
-65 -20 -66 -20 -1 0 0 6 3 14 3 7 23 18 45 25 21 6 39 14 39 18 0 12 -44 43
-61 43 -23 0 -59 -46 -59 -76 0 -13 -6 -24 -13 -24 -80 0 -386 24 -399 31 -13
7 -18 6 -18 -2 0 -7 -3 -10 -6 -7 -3 3 -1 24 5 45 l11 40 106 6 c108 7 175 27
203 60 7 10 23 17 34 17 19 0 81 25 135 54 13 7 51 32 83 56 61 45 63 60 8 60
-28 0 -49 24 -220 250 -189 249 -227 278 -459 334 -181 43 -256 53 -500 66
-174 9 -637 11 -795 3z m980 -93 c13 -6 15 -9 5 -9 -8 0 -22 4 -30 9 -18 12
-2 12 25 0z m-1570 -48 c-6 -5 -35 -28 -65 -53 -53 -42 -176 -163 -232 -227
-35 -40 -212 -274 -225 -297 -9 -16 -17 -16 -75 -6 -101 17 -237 23 -305 13
-39 -5 -63 -5 -63 1 0 15 237 253 349 349 139 120 204 161 298 187 117 31 343
55 318 33z m1805 -82 c86 0 215 -18 257 -35 21 -9 33 -10 35 -3 2 6 34 -23 71
-63 67 -74 98 -126 142 -244 l24 -62 -42 8 c-23 4 -51 10 -62 14 -11 4 -2 -5
20 -20 22 -15 33 -24 25 -21 -92 32 -135 40 -217 40 -91 1 -92 1 -129 -34 -29
-27 -34 -29 -22 -10 27 44 64 63 135 71 l68 7 -70 -1 c-38 0 -125 3 -191 8
l-121 7 -10 32 c-6 21 -5 64 4 136 8 58 12 128 10 155 -3 28 -2 42 0 33 4 -15
16 -18 73 -18z m-303 -392 c-3 -8 -6 -5 -6 6 -1 11 2 17 5 13 3 -3 4 -12 1
-19z m-10 -40 c-3 -8 -6 -5 -6 6 -1 11 2 17 5 13 3 -3 4 -12 1 -19z m853 -49
c0 -10 -64 -23 -82 -16 -7 3 -3 6 10 6 23 1 29 15 11 27 -8 4 -7 9 2 14 13 9
59 -16 59 -31z m-863 9 c-3 -8 -6 -5 -6 6 -1 11 2 17 5 13 3 -3 4 -12 1 -19z
m400 -25 c-7 -22 -13 -31 -15 -21 -3 15 14 58 22 58 2 0 -1 -17 -7 -37z m-410
-15 c-3 -8 -6 -5 -6 6 -1 11 2 17 5 13 3 -3 4 -12 1 -19z m751 15 c-10 -2 -26
-2 -35 0 -10 3 -2 5 17 5 19 0 27 -2 18 -5z m-1821 -29 c-3 -3 -12 -4 -19 -1
-8 3 -5 6 6 6 11 1 17 -2 13 -5z m1520 0 c-3 -3 -12 -4 -19 -1 -8 3 -5 6 6 6
11 1 17 -2 13 -5z m-460 -26 c-3 -8 -6 -5 -6 6 -1 11 2 17 5 13 3 -3 4 -12 1
-19z m31 -63 c6 -3 12 -12 12 -22 0 -17 -8 -18 -112 -10 -62 4 -261 6 -443 4
-318 -3 -334 -4 -435 -29 -58 -15 -258 -65 -445 -112 -187 -47 -394 -103 -460
-125 -65 -23 -122 -41 -125 -41 -17 1 50 27 250 95 310 105 627 191 794 216
135 20 916 39 964 24z m280 -5 c51 0 72 -4 72 -12 0 -15 -68 -22 -214 -23 -93
0 -99 1 -115 24 l-16 24 100 -6 c55 -4 133 -7 173 -7z m-430 -56 c172 -7 174
-7 183 -31 9 -23 12 -89 3 -68 -6 16 -337 12 -410 -5 -60 -13 -61 -14 -54 -41
4 -15 31 -71 59 -124 28 -53 51 -104 51 -112 0 -22 33 -73 47 -73 7 0 18 -10
24 -22 12 -22 11 -22 -6 -8 -17 14 -18 13 -12 -12 6 -22 -4 -15 -58 39 -50 50
-70 64 -86 60 -14 -4 -35 4 -60 23 -54 39 -120 53 -187 40 -90 -17 -140 -46
-230 -132 -48 -46 -72 -67 -55 -46 89 105 211 187 278 188 46 0 58 12 45 44
-15 39 -12 80 7 120 16 35 16 35 -15 71 -37 41 -39 56 -14 78 32 28 30 28 490
11z m370 -31 c42 -15 58 -42 25 -44 -10 0 -55 -4 -100 -7 -46 -4 -83 -5 -83
-2 0 3 -4 22 -9 42 l-9 37 67 -5 c36 -3 85 -12 109 -21z m832 -143 c13 -8 13
-10 -2 -10 -9 0 -20 5 -23 10 -8 13 5 13 25 0z m-3080 -110 c-8 -5 -19 -10
-25 -10 -5 0 -3 5 5 10 8 5 20 10 25 10 6 0 3 -5 -5 -10z m1830 -106 c0 -4
-10 -15 -22 -26 -21 -18 -23 -18 -26 -3 -3 13 -7 14 -18 4 -10 -8 -14 -8 -14
-1 0 7 15 16 33 21 41 12 47 12 47 5z m-4199 -89 c-9 -25 -17 -41 -19 -36 -3
10 24 81 31 81 3 0 -3 -20 -12 -45z m2719 -25 c0 -5 8 -10 17 -10 9 0 24 -7
32 -15 21 -19 101 -32 101 -16 0 6 -13 11 -29 11 -17 0 -33 5 -36 10 -10 17
57 11 77 -7 31 -27 22 -43 -24 -45 -57 -2 -70 -4 -91 -13 -24 -10 -67 2 -61
18 2 7 -7 24 -21 37 -23 21 -29 23 -55 13 -24 -9 -30 -9 -30 2 0 9 15 15 43
18 23 2 50 4 60 5 9 1 17 -2 17 -8z m3140 -4 c0 -2 -8 -10 -17 -17 -16 -13
-17 -12 -4 4 13 16 21 21 21 13z m-2800 -15 c0 -17 -120 -127 -173 -158 -53
-32 -123 -57 -83 -31 10 7 32 24 49 38 l31 25 -54 6 -55 6 58 1 c49 2 60 5 64
21 5 20 56 34 71 19 5 -5 15 -2 22 7 12 14 12 16 -1 15 -7 -1 -25 -2 -38 -1
-20 1 -21 3 -11 16 10 12 10 15 -4 15 -9 0 -16 7 -16 15 0 12 14 15 70 15 39
0 70 -4 70 -9z m-439 -53 c-11 -18 -21 -26 -21 -18 0 19 30 63 37 56 3 -3 -4
-20 -16 -38z m3184 -26 c-13 -32 -30 -89 -38 -128 -9 -38 -16 -58 -16 -44 -2
48 57 230 74 230 2 0 -7 -26 -20 -58z m-2395 18 c-31 -43 -46 -48 -18 -6 13
20 27 36 31 36 5 0 -1 -13 -13 -30z m-756 -5 c-4 -8 -10 -12 -15 -9 -11 6 -2
24 11 24 5 0 7 -7 4 -15z m3358 -22 c-5 -10 -13 -40 -16 -66 -11 -71 -32 -123
-66 -165 -16 -20 -30 -44 -30 -52 0 -9 -14 -27 -31 -39 -21 -16 -28 -26 -19
-31 6 -4 -2 -7 -19 -6 -18 1 -31 6 -31 14 0 16 -6 15 -35 -4 -21 -14 -25 -14
-25 -2 0 8 6 22 13 32 11 16 19 17 52 7 53 -14 54 -8 3 15 l-43 19 65 5 65 5
6 46 c4 25 21 70 38 101 17 30 31 68 31 84 0 33 9 49 30 56 21 7 23 3 12 -19z
m-57 7 c-3 -5 -11 -10 -16 -10 -6 0 -7 5 -4 10 3 6 11 10 16 10 6 0 7 -4 4
-10z m-4969 -16 c38 -11 54 -20 54 -32 0 -23 -59 -94 -73 -89 -7 2 -18 -5 -27
-14 -20 -24 -60 -31 -142 -23 -76 7 -86 18 -62 69 25 52 103 97 182 104 8 0
38 -6 68 -15z m1235 -19 c-117 -39 -187 -48 -116 -15 22 10 33 19 25 20 -41 4
64 29 125 29 l70 0 -104 -34z m-2245 6 c-3 -4 -19 -11 -35 -14 -20 -4 -35 -17
-46 -38 -9 -17 -19 -28 -22 -25 -8 8 7 77 16 72 4 -3 21 -1 37 4 39 11 56 12
50 1z m2625 -21 c6 -16 17 -30 24 -30 8 0 17 -4 20 -10 12 -19 -14 -10 -44 16
-30 25 -41 54 -20 54 5 0 15 -13 20 -30z m723 -39 c-40 -66 -49 -72 -35 -25 8
27 61 97 68 90 2 -1 -13 -31 -33 -65z m-568 18 c3 -5 1 -9 -5 -9 -17 0 -41 12
-41 20 0 10 38 1 46 -11z m-806 -9 c0 -5 -7 -10 -16 -10 -8 0 -12 5 -9 10 3 6
10 10 16 10 5 0 9 -4 9 -10z m327 -60 c54 -6 139 -14 188 -19 73 -7 80 -9 35
-10 -93 -2 -291 19 -324 35 -17 8 -24 12 -14 10 9 -3 60 -10 115 -16z m1327
-62 c-69 -73 -110 -159 -150 -308 -12 -47 -23 -75 -23 -64 -2 36 47 191 80
255 27 54 102 149 117 149 3 0 -8 -15 -24 -32z m2143 -20 c-3 -8 -6 -5 -6 6
-1 11 2 17 5 13 3 -3 4 -12 1 -19z m268 -18 c8 -13 -5 -13 -25 0 -13 8 -13 10
2 10 9 0 20 -4 23 -10z m55 -20 c0 -5 -6 -10 -12 -10 -7 0 -37 -11 -67 -25
-40 -19 -52 -21 -47 -10 3 8 1 15 -5 15 -6 0 -8 4 -4 10 3 5 13 6 22 3 10 -4
14 -2 9 5 -6 10 5 12 87 20 9 1 17 -2 17 -8z m-5002 -17 c-10 -2 -28 -2 -40 0
-13 2 -5 4 17 4 22 1 32 -1 23 -4z m2778 -128 c-67 -184 -73 -193 -110 -179
-22 9 -20 23 8 45 40 32 80 109 132 258 2 8 7 11 10 8 3 -3 -15 -62 -40 -132z
m-2368 100 c69 -8 127 -17 131 -21 6 -7 -13 -5 -324 27 -179 18 -180 18 -55
13 69 -3 180 -12 248 -19z m2324 -1 c-13 -9 -26 -13 -30 -9 -8 8 17 25 38 25
9 0 6 -6 -8 -16z m2138 -55 c0 -15 -38 -30 -46 -17 -5 7 -3 8 5 3 9 -5 12 2
11 26 -1 19 -2 39 -1 44 1 11 31 -42 31 -56z m-4277 24 c-7 -2 -19 -2 -25 0
-7 3 -2 5 12 5 14 0 19 -2 13 -5z m4394 -133 c-3 -47 -9 -96 -14 -110 l-10
-24 -12 21 c-8 17 -9 46 -1 115 6 51 13 102 17 113 13 41 25 -29 20 -115z
m-52 23 c-7 -47 -19 -56 -29 -20 -10 39 -6 72 12 97 l17 25 3 -29 c2 -17 1
-49 -3 -73z m-5832 40 c65 -6 105 -23 53 -23 -46 0 -181 22 -196 31 -10 7 -1
8 30 5 25 -4 76 -9 113 -13z m3058 -53 c-11 -29 -18 -56 -16 -60 2 -4 -2 -15
-9 -25 -12 -16 -14 -14 -19 25 -7 52 5 86 32 95 12 3 21 11 21 17 0 6 2 9 5 6
3 -3 -3 -29 -14 -58z m2643 30 c-4 -33 9 -39 26 -12 10 14 10 13 6 -8 -3 -14
-9 -41 -14 -60 l-9 -35 -8 28 c-10 37 -16 28 -50 -66 -33 -95 -46 -95 -15 -1
13 38 24 91 26 118 2 38 7 52 21 57 10 4 19 8 19 8 1 1 0 -12 -2 -29z m76 20
c0 -5 -4 -10 -10 -10 -5 0 -10 5 -10 10 0 6 5 10 10 10 6 0 10 -4 10 -10z
m-2287 -170 c16 -13 32 -18 44 -13 15 6 16 4 5 -9 -7 -8 -10 -22 -7 -29 2 -8
-2 -23 -10 -33 -15 -20 -15 -20 -30 0 -8 10 -15 27 -15 37 0 10 -7 29 -16 42
-20 30 -6 32 29 5z m242 -30 c4 -6 -5 -10 -19 -10 -14 0 -26 5 -26 10 0 6 9
10 19 10 11 0 23 -4 26 -10z m2038 -33 c-17 -34 -29 -23 -19 18 4 16 11 22 21
19 13 -5 12 -10 -2 -37z m75 24 c11 -7 9 -18 -11 -57 -32 -62 -74 -104 -82
-82 -4 9 5 31 18 51 13 19 30 49 37 66 13 33 17 35 38 22z m-2268 -21 c0 -5
-2 -10 -4 -10 -3 0 -8 5 -11 10 -3 6 -1 10 4 10 6 0 11 -4 11 -10z m230 -16
c0 -3 -6 -4 -12 -3 -26 3 -38 -2 -57 -22 -15 -17 -34 -22 -88 -25 -37 -1 -58
-1 -46 2 15 4 20 10 16 21 -9 23 16 33 90 33 47 0 66 3 61 11 -4 8 0 8 15 0
11 -7 21 -14 21 -17z m-412 10 c12 -4 22 -13 22 -21 0 -8 4 -11 10 -8 5 3 17
2 26 -3 14 -8 12 -11 -12 -23 -42 -21 -84 -5 -84 33 0 30 2 31 38 22z m121
-69 c-22 -36 -37 -51 -45 -42 -4 4 55 77 63 77 1 0 -7 -16 -18 -35z m43 3
c-17 -17 -15 -25 11 -33 13 -4 17 -8 10 -12 -20 -8 -15 -20 10 -27 21 -6 21
-6 -7 -21 -36 -19 -65 -13 -46 10 10 12 10 15 -1 15 -11 0 -11 2 1 10 12 7 13
13 3 28 -12 20 -1 42 21 42 6 0 5 -5 -2 -12z m-3912 -8 c0 -5 -5 -10 -11 -10
-5 0 -7 5 -4 10 3 6 8 10 11 10 2 0 4 -4 4 -10z m6038 -9 c3 -8 -1 -12 -9 -9
-7 2 -15 10 -17 17 -3 8 1 12 9 9 7 -2 15 -10 17 -17z m-488 5 c0 -2 7 -20 15
-40 l15 -36 -182 0 c-100 0 -178 3 -175 7 16 15 327 81 327 69z m-1750 -16 c0
-11 -55 -26 -132 -35 -50 -6 -58 -5 -58 9 0 9 5 16 11 16 5 0 8 -4 5 -8 -7
-12 116 6 128 18 13 13 46 13 46 0z m2276 -28 c-9 -2 -25 -1 -34 3 -15 6 -15
8 3 15 12 4 26 3 34 -4 12 -9 11 -12 -3 -14z m-2011 -128 c-9 -41 -18 -74 -20
-74 -3 0 -11 13 -20 29 -13 27 -13 37 1 100 9 39 20 68 25 65 5 -3 12 3 17 13
15 38 13 -61 -3 -133z m82 11 c-3 -38 -13 -94 -22 -124 -17 -54 -17 -54 -36
-34 -18 17 -19 25 -10 64 5 24 18 87 27 139 l17 95 15 -35 c10 -25 13 -56 9
-105z m-4008 63 c28 -23 51 -45 51 -49 0 -22 -100 -25 -143 -3 -54 28 -58 34
-39 53 20 21 52 40 68 41 6 0 34 -19 63 -42z m146 2 c10 -11 16 -20 13 -20 -3
0 -13 9 -23 20 -10 11 -16 20 -13 20 3 0 13 -9 23 -20z m3545 -10 c0 -5 8 -10
18 -10 15 -1 15 -2 1 -13 -9 -7 -18 -28 -21 -47 -8 -48 -78 -211 -88 -205 -7
5 -21 -24 -36 -74 -6 -24 -7 -24 -20 8 -12 28 -12 37 1 61 8 15 19 30 24 32
12 4 61 181 61 220 0 26 3 28 53 37 4 0 7 -3 7 -9z m134 -5 c6 -17 4 -18 -18
-9 -20 8 -21 24 -2 24 8 0 16 -7 20 -15z m-64 -77 c0 -5 -9 -18 -19 -29 l-19
-21 -11 20 c-15 29 -15 50 1 34 19 -19 26 -14 21 16 -4 26 -4 26 11 8 9 -11
16 -24 16 -28z m-3143 -14 c-3 -3 -12 -4 -19 -1 -8 3 -5 6 6 6 11 1 17 -2 13
-5z m70 -10 c-3 -3 -12 -4 -19 -1 -8 3 -5 6 6 6 11 1 17 -2 13 -5z m80 -10
c-3 -3 -12 -4 -19 -1 -8 3 -5 6 6 6 11 1 17 -2 13 -5z m96 -11 c-7 -2 -21 -2
-30 0 -10 3 -4 5 12 5 17 0 24 -2 18 -5z m822 -3 c-11 -5 -33 -8 -50 -8 -29 1
-29 1 5 8 49 10 69 10 45 0z m-692 -7 c-13 -2 -35 -2 -50 0 -16 2 -5 4 22 4
28 0 40 -2 28 -4z m215 -10 c-27 -2 -69 -2 -95 0 -27 2 -5 3 47 3 52 0 74 -1
48 -3z m355 0 c-18 -2 -48 -2 -65 0 -18 2 -4 4 32 4 36 0 50 -2 33 -4z m1350
-10 c-7 -2 -19 -2 -25 0 -7 3 -2 5 12 5 14 0 19 -2 13 -5z m-973 -22 c0 -5 9
-13 21 -16 37 -12 15 -14 -29 -3 -46 12 -56 28 -17 28 14 0 25 -4 25 -9z
m1990 -142 c-47 -85 -61 -101 -114 -140 -47 -35 -51 -35 -53 -8 -1 13 16 39
45 68 26 26 58 68 72 94 20 39 30 47 52 47 16 0 28 5 28 12 0 6 2 9 5 6 3 -3
-13 -38 -35 -79z m-80 61 c11 0 -25 -66 -53 -97 -27 -30 -37 -29 -37 3 0 32
50 105 68 99 8 -3 18 -5 22 -5z m-165 -160 c18 -19 17 -20 -3 -20 -12 0 -26 9
-32 20 -8 16 -8 20 3 20 8 0 22 -9 32 -20z m9 -37 c21 -4 27 -3 22 5 -4 7 -3
12 3 12 9 0 31 -31 31 -44 0 -14 -68 -4 -97 14 -38 23 -43 35 -10 26 12 -4 35
-9 51 -13z"/>
<path d="M5583 2823 c9 -2 23 -2 30 0 6 3 -1 5 -18 5 -16 0 -22 -2 -12 -5z"/>
<path d="M6296 1575 c-3 -8 -2 -15 3 -15 5 0 14 7 21 15 10 12 10 15 -3 15 -8
0 -17 -7 -21 -15z"/>
<path d="M1400 1876 c-34 -13 -34 -13 -12 -25 12 -7 20 -16 17 -20 -2 -5 12
-3 33 5 20 7 49 13 65 14 29 0 34 9 15 28 -15 15 -73 14 -118 -2z"/>
<path d="M1308 1817 c-7 -12 -11 -28 -9 -36 1 -8 -3 -10 -11 -6 -7 3 -4 -1 6
-9 25 -20 114 -21 159 -2 18 7 41 24 52 36 l20 23 -49 -7 c-28 -3 -59 -12 -70
-20 -18 -12 -22 -11 -31 7 -5 11 -20 24 -32 28 -18 7 -25 4 -35 -14z"/>
<path d="M2360 2810 c-18 -12 -2 -12 25 0 13 6 15 9 5 9 -8 0 -22 -4 -30 -9z"/>
<path d="M5923 2632 c-13 -8 -21 -77 -10 -88 12 -12 82 10 79 25 -6 27 81 -39
119 -92 16 -22 29 -35 29 -30 0 15 -55 83 -98 121 -20 19 -31 31 -24 27 6 -3
12 -2 12 4 0 16 -39 33 -61 28 -10 -3 -17 -1 -13 4 6 11 -16 12 -33 1z"/>
<path d="M1318 2583 c7 -3 16 -2 19 1 4 3 -2 6 -13 5 -11 0 -14 -3 -6 -6z"/>
<path d="M5445 2489 c-11 -16 -3 -17 40 -3 l40 12 -37 1 c-20 1 -40 -4 -43
-10z"/>
<path d="M1085 2338 c-23 -58 -46 -147 -43 -170 2 -17 14 -4 51 57 55 90 66
123 46 136 -25 16 -40 9 -54 -23z"/>
<path d="M600 1974 c0 -8 5 -12 10 -9 6 4 8 11 5 16 -9 14 -15 11 -15 -7z"/>
</g>
</svg>
