<?xml version="1.0" standalone="no"?>
<!DOCTYPE svg PUBLIC "-//W3C//DTD SVG 20010904//EN"
 "http://www.w3.org/TR/2001/REC-SVG-20010904/DTD/svg10.dtd">
<svg version="1.0" xmlns="http://www.w3.org/2000/svg"
 width="512.000000pt" height="512.000000pt" viewBox="0 0 512.000000 512.000000"
 preserveAspectRatio="xMidYMid meet">

<g transform="translate(0.000000,512.000000) scale(0.100000,-0.100000)"
fill="#000000" stroke="none">
<path d="M690 3883 c-53 -10 -112 -93 -140 -197 -15 -54 -20 -62 -49 -70 -17
-5 -33 -7 -36 -4 -8 8 13 118 30 151 l15 32 -34 -37 c-29 -30 -36 -47 -42 -97
-5 -48 -10 -61 -23 -61 -18 0 -41 -18 -41 -33 0 -17 175 21 275 60 l59 23 48
-47 c26 -26 48 -50 48 -53 0 -3 -38 -11 -84 -18 -99 -14 -208 -42 -288 -72
-43 -16 -58 -26 -58 -41 0 -20 15 -26 25 -9 10 16 184 67 290 84 55 10 108 19
118 21 14 3 24 -8 38 -41 11 -24 17 -49 13 -55 -18 -29 -337 -159 -390 -159
-19 0 -18 -19 1 -26 23 -9 177 42 294 97 57 27 106 49 107 49 8 0 3 -90 -6
-114 -8 -21 -27 -31 -120 -60 -61 -19 -127 -38 -146 -42 -18 -3 -34 -10 -34
-14 0 -18 36 -19 90 -4 58 16 59 16 112 -9 75 -35 107 -39 153 -17 29 14 32
18 13 14 -32 -7 -129 12 -153 30 -15 11 -11 15 39 33 44 16 65 19 94 12 57
-13 133 -11 151 5 14 12 22 12 55 1 22 -8 47 -22 57 -32 10 -10 37 -89 63
-183 24 -91 61 -217 81 -280 47 -144 142 -357 164 -365 17 -7 103 -30 314 -86
123 -32 130 -33 215 -22 49 6 122 23 164 37 97 34 131 34 157 0 28 -35 76
-189 92 -290 l12 -81 42 -11 c23 -6 70 -33 105 -59 53 -39 70 -47 99 -45 126
11 122 12 163 -50 27 -41 45 -58 67 -63 56 -12 67 15 25 64 -32 39 -30 76 6
76 17 0 28 -8 37 -27 7 -16 19 -40 26 -55 10 -22 21 -29 50 -31 39 -3 53 -17
110 -107 38 -58 71 -69 113 -36 39 31 59 26 114 -25 36 -34 59 -47 89 -51 40
-6 41 -5 60 38 45 103 62 194 116 643 16 136 29 179 56 184 35 7 358 -110 512
-185 l157 -77 0 -62 c0 -34 5 -98 11 -141 6 -42 14 -131 17 -197 l7 -120 32
-2 c17 -1 42 -9 54 -18 26 -18 59 -21 59 -6 0 6 -10 24 -22 40 -17 24 -19 34
-11 52 9 19 7 26 -13 41 -45 34 -21 107 35 107 27 0 56 -14 95 -47 28 -23 30
-24 40 -6 7 11 11 80 10 178 0 126 -5 179 -21 250 -38 162 -24 146 -328 361
-37 26 -128 69 -240 114 -99 39 -198 83 -219 97 -151 98 -220 123 -348 123
-56 1 -105 6 -123 14 l-30 14 33 12 c17 7 32 19 32 27 0 19 -48 12 -115 -17
-45 -19 -67 -18 -127 10 -39 18 -36 49 17 179 42 103 44 116 44 203 0 51 1
102 2 113 8 96 -36 221 -98 276 -66 57 -137 83 -233 83 -152 1 -259 -57 -317
-174 -40 -78 -41 -89 -8 -83 18 4 33 -3 55 -25 29 -29 30 -34 30 -119 0 -107
-13 -137 -58 -141 -17 -2 -32 -4 -32 -5 1 -14 32 -103 39 -111 16 -19 52 -231
49 -287 -3 -52 -4 -53 -40 -62 -27 -6 -58 -3 -119 12 -135 34 -184 28 -326
-41 -78 -37 -91 -40 -235 -53 -84 -7 -173 -21 -198 -30 -25 -9 -46 -12 -47 -8
-2 5 -23 38 -48 73 -101 145 -128 189 -190 311 -36 70 -70 151 -76 181 -7 29
-27 80 -46 113 -95 163 -163 292 -163 308 0 20 -78 97 -97 97 -17 0 -17 -3 11
-58 34 -69 50 -145 43 -216 -6 -55 -35 -162 -42 -154 -2 2 2 38 8 81 20 139
-17 264 -109 366 -25 27 -60 60 -79 71 -20 12 -33 25 -30 30 3 4 -9 13 -27 19
-65 23 -161 -54 -190 -152 -12 -40 -33 -55 -101 -72 -33 -9 -33 -3 -7 68 22
59 77 130 124 158 30 19 26 21 -24 12z m213 -73 c151 -95 225 -255 199 -424
-13 -84 -39 -156 -56 -156 -7 0 -11 35 -11 113 0 91 -5 125 -23 180 -27 77
-79 158 -152 236 -53 58 -57 66 -37 74 23 10 33 7 80 -23z m-66 -73 c117 -123
163 -227 170 -382 2 -55 0 -106 -5 -114 -8 -10 -20 -12 -57 -5 l-47 9 -2 96
c-1 86 -5 102 -36 165 -20 41 -56 91 -87 123 -52 51 -54 55 -43 84 13 38 38
77 49 77 4 0 30 -24 58 -53z"/>
</g>
</svg>
